<svg width="32" height="32" viewBox="0 0 32 32" fill="none" xmlns="http://www.w3.org/2000/svg">
<g clip-path="url(#clip0_2509_1198)">
<path d="M32 14.9351C32 18.5084 29.4934 21.4951 26.1333 22.2311C26.0373 16.7164 21.536 12.2684 16 12.2684C10.464 12.2684 5.9627 16.7164 5.8667 22.2311C2.5067 21.4951 0 18.5084 0 14.9351C0 13.3351 0.5867 11.8738 1.5574 10.7538C2.5387 9.62309 3.8934 8.85508 5.4294 8.62048C5.8881 6.14578 8.0534 4.26848 10.6667 4.26848C11.4241 4.26848 12.1387 4.42848 12.7894 4.70578C14.4427 1.92178 17.8561 0.332485 21.4721 1.39918C24.5867 2.32718 26.6668 5.29259 26.6668 8.54589V8.63128C29.6962 9.13258 32 11.7671 32 14.9351Z" fill="#4B68F0"/>
<path d="M15.9999 23.8241C17.4138 23.8241 18.5599 22.6779 18.5599 21.2641C18.5599 19.8503 17.4138 18.7041 15.9999 18.7041C14.5861 18.7041 13.4399 19.8503 13.4399 21.2641C13.4399 22.6779 14.5861 23.8241 15.9999 23.8241Z" fill="#4B68F0"/>
<path d="M20.7445 29.4902C19.3905 30.4004 17.7521 30.9352 15.9999 30.9352C14.2477 30.9352 12.6093 30.4004 11.2554 29.4902C11.665 27.226 13.6789 25.5308 15.9999 25.5308C18.3209 25.5308 20.3348 27.2261 20.7445 29.4902Z" fill="#4B68F0"/>
<path d="M24.5335 22.4017C24.5335 24.6773 23.6461 26.7366 22.1783 28.2612C21.6094 26.5773 20.3693 25.2234 18.8105 24.4611C19.7093 23.6874 20.2668 22.5383 20.2668 21.2639C20.2668 18.9087 18.3553 16.9972 16.0001 16.9972C13.6449 16.9972 11.7334 18.9087 11.7334 21.2639C11.7334 22.5382 12.2909 23.6874 13.1898 24.4611C11.631 25.2234 10.3908 26.5774 9.822 28.2612C8.3543 26.7366 7.4668 24.6772 7.4668 22.4017C7.4668 17.6913 11.2897 13.8684 16.0001 13.8684C20.7105 13.8684 24.5335 17.6913 24.5335 22.4017Z" fill="#4B68F0"/>
</g>
<defs>
<clipPath id="clip0_2509_1198">
<rect width="32" height="32" fill="white"/>
</clipPath>
</defs>
</svg>
