<svg width="32" height="32" viewBox="0 0 32 32" fill="none" xmlns="http://www.w3.org/2000/svg">
<path d="M26.3125 19.75H25.9911C25.2084 17.5372 23.088 16 20.6875 16C18.2714 16 16.1401 17.5573 15.3692 19.7921C13.3916 20.0594 11.8014 21.5655 11.4068 23.5H11.3125C9.24431 23.5 7.5625 25.1818 7.5625 27.25C7.5625 29.3182 9.24431 31 11.3125 31H26.3125C29.4143 31 32 28.4768 32 25.375C32 22.2732 29.4143 19.75 26.3125 19.75Z" fill="#4B68F0"/>
<path d="M24.4375 1H0V8.5H24.4375V1ZM5.6875 6.625H3.8125V4.75H5.6875V6.625ZM9.4375 6.625H7.5625V4.75H9.4375V6.625ZM13.1875 6.625H11.3125V4.75H13.1875V6.625Z" fill="#4B68F0"/>
<path d="M20.6875 14.125C22.0346 14.125 23.3208 14.4899 24.4375 15.1362V10.375H0V16H15.7484C17.0871 14.8254 18.8237 14.125 20.6875 14.125ZM5.6875 14.125H3.8125V12.25H5.6875V14.125ZM9.4375 14.125H7.5625V12.25H9.4375V14.125ZM13.1875 14.125H11.3125V12.25H13.1875V14.125Z" fill="#4B68F0"/>
<path d="M9.99869 21.7798C10.7595 20.0631 12.228 18.7447 14.0261 18.1781C14.0809 18.0722 14.1509 17.9776 14.2104 17.875H0V25.375H6.01013C6.64094 23.5964 8.14144 22.2258 9.99869 21.7798ZM7.5625 19.75H9.4375V21.625H7.5625V19.75ZM5.6875 21.625H3.8125V19.75H5.6875V21.625Z" fill="#4B68F0"/>
</svg>
