<svg width="32" height="32" viewBox="0 0 32 32" fill="none" xmlns="http://www.w3.org/2000/svg">
<path fill-rule="evenodd" clip-rule="evenodd" d="M9.01609 14.9493C9.01609 15.344 9.05875 15.6627 9.13342 15.896C9.21875 16.1307 9.32542 16.3867 9.47475 16.664C9.52809 16.748 9.54942 16.8333 9.54942 16.908C9.54942 17.0147 9.48542 17.1213 9.34675 17.228L8.67609 17.6747C8.59503 17.7331 8.4986 17.7665 8.39875 17.7707C8.29209 17.7707 8.18542 17.7173 8.08009 17.6213C7.93686 17.4673 7.80871 17.2998 7.69742 17.1213C7.57823 16.9168 7.46791 16.7073 7.36675 16.4933C6.53742 17.472 5.49342 17.9613 4.23742 17.9613C3.34409 17.9613 2.63075 17.7067 2.10942 17.196C1.58942 16.684 1.32275 16.004 1.32275 15.152C1.32275 14.248 1.64275 13.512 2.29075 12.96C2.94009 12.4067 3.80142 12.1293 4.89742 12.1293C5.26009 12.1293 5.63209 12.1613 6.02542 12.2147C6.42009 12.268 6.82542 12.3533 7.24942 12.4493V11.672C7.24942 10.8627 7.08009 10.2987 6.74942 9.96933C6.40942 9.63867 5.83475 9.48 5.01609 9.48C4.64275 9.48 4.25875 9.52133 3.86542 9.61733C3.47209 9.71333 3.08809 9.83067 2.71609 9.98C2.59464 10.0339 2.46996 10.0802 2.34275 10.1187C2.28792 10.1363 2.23097 10.1467 2.17342 10.1493C2.02409 10.1493 1.94942 10.0427 1.94942 9.82V9.29867C1.94942 9.128 1.97075 9 2.02409 8.92533C2.10463 8.82853 2.20699 8.75222 2.32275 8.70267C2.74917 8.49095 3.19889 8.32985 3.66275 8.22267C4.20545 8.08373 4.76392 8.01605 5.32409 8.02133C6.59075 8.02133 7.51609 8.30933 8.11209 8.884C8.69875 9.45733 8.99475 10.3307 8.99475 11.5013V14.9493H9.01609ZM4.69609 16.568C5.04675 16.568 5.40809 16.504 5.79209 16.376C6.1824 16.2411 6.53076 16.0067 6.80275 15.696C6.97466 15.4995 7.09878 15.2658 7.16542 15.0133C7.22809 14.7587 7.27209 14.4493 7.27209 14.088V13.6413C6.94907 13.5626 6.62189 13.5021 6.29209 13.46C5.96041 13.4179 5.62643 13.3965 5.29209 13.396C4.57875 13.396 4.05742 13.5347 3.70542 13.8227C3.35475 14.1093 3.18542 14.5133 3.18542 15.0453C3.18542 15.5453 3.31209 15.9187 3.57875 16.1733C3.83342 16.44 4.20542 16.568 4.69609 16.568ZM13.2428 17.7173C13.0508 17.7173 12.9228 17.6853 12.8374 17.6107C12.7521 17.5467 12.6774 17.3973 12.6134 17.196L10.1134 8.968C10.0648 8.83004 10.0326 8.68683 10.0174 8.54133C10.0174 8.37067 10.1028 8.27467 10.2721 8.27467H11.3161C11.5174 8.27467 11.6561 8.308 11.7294 8.38133C11.8161 8.44533 11.8801 8.59467 11.9428 8.79733L13.7321 15.8427L15.3921 8.79733C15.4454 8.584 15.5094 8.44533 15.5934 8.38133C15.7213 8.30288 15.8703 8.26565 16.0201 8.27467H16.8708C17.0734 8.27467 17.2121 8.308 17.2974 8.38133C17.3814 8.44533 17.4574 8.59467 17.4988 8.79733L19.1801 15.928L21.0214 8.79733C21.0854 8.584 21.1601 8.44533 21.2348 8.38133C21.3583 8.30292 21.5034 8.26558 21.6494 8.27467H22.6401C22.8094 8.27467 22.9068 8.36133 22.9068 8.54133C22.9068 8.59467 22.8948 8.648 22.8841 8.712C22.8674 8.80298 22.8424 8.89224 22.8094 8.97867L20.2454 17.2053C20.1814 17.4187 20.1068 17.556 20.0214 17.62C19.9013 17.6971 19.7599 17.7344 19.6174 17.7267H18.7014C18.5014 17.7267 18.3614 17.6947 18.2748 17.62C18.1908 17.5453 18.1161 17.4067 18.0748 17.1933L16.4254 10.3293L14.7854 17.1827C14.7321 17.396 14.6694 17.5347 14.5854 17.6093C14.4988 17.684 14.3494 17.716 14.1588 17.716L13.2441 17.7173H13.2428ZM26.9174 18.004C26.3641 18.004 25.8108 17.94 25.2788 17.8133C24.7468 17.6853 24.3321 17.5467 24.0548 17.3867C23.8841 17.292 23.7681 17.1853 23.7254 17.0893C23.6838 16.9952 23.6621 16.8936 23.6614 16.7907V16.248C23.6614 16.0253 23.7468 15.9187 23.9054 15.9187C23.9694 15.9187 24.0334 15.9293 24.0974 15.9507C24.1614 15.972 24.2574 16.0147 24.3641 16.0573C24.7254 16.2173 25.1188 16.344 25.5348 16.4293C25.9614 16.5147 26.3748 16.5573 26.8014 16.5573C27.4708 16.5573 27.9934 16.44 28.3548 16.2053C28.528 16.1007 28.6704 15.9521 28.7676 15.7745C28.8648 15.597 28.9132 15.397 28.9081 15.1947C28.912 15.0576 28.8887 14.9212 28.8395 14.7933C28.7902 14.6653 28.7161 14.5484 28.6214 14.4493C28.4294 14.248 28.0668 14.0667 27.5454 13.896L26.0028 13.416C25.2254 13.172 24.6508 12.8107 24.3001 12.332C23.9569 11.8902 23.7694 11.3474 23.7668 10.788C23.7668 10.3413 23.8641 9.948 24.0548 9.60667C24.2468 9.26667 24.5014 8.968 24.8214 8.73467C25.1414 8.48933 25.5014 8.308 25.9281 8.18133C26.3548 8.05333 26.8014 8 27.2694 8C27.5028 8 27.7494 8.01067 27.9828 8.04267C28.2268 8.07467 28.4494 8.11733 28.6734 8.16C28.8868 8.21333 29.0894 8.26667 29.2801 8.32933C29.4721 8.39333 29.6214 8.45733 29.7281 8.52133C29.8537 8.58459 29.9632 8.67582 30.0481 8.788C30.1168 8.89154 30.15 9.01461 30.1428 9.13867V9.63867C30.1428 9.86267 30.0574 9.98 29.8974 9.98C29.7558 9.96376 29.6186 9.92029 29.4934 9.852C28.8504 9.56796 28.1536 9.4265 27.4508 9.43733C26.8441 9.43733 26.3641 9.532 26.0348 9.73467C25.7041 9.93733 25.5348 10.2453 25.5348 10.6813C25.5348 10.98 25.6414 11.236 25.8548 11.4373C26.0681 11.64 26.4601 11.8427 27.0241 12.024L28.5361 12.5013C29.3014 12.7467 29.8561 13.088 30.1854 13.524C30.5148 13.96 30.6748 14.46 30.6748 15.0133C30.6748 15.4707 30.5788 15.8867 30.3988 16.248C30.2095 16.6123 29.9445 16.932 29.6214 17.1853C29.2908 17.452 28.8974 17.6427 28.4401 17.7813C27.9601 17.9293 27.4614 18.004 26.9174 18.004Z" fill="white"/>
<path fill-rule="evenodd" clip-rule="evenodd" d="M0.50416 20.6332C5.01616 23.2505 10.5842 24.8372 16.3402 24.8372C20.2255 24.8372 24.4922 24.0278 28.4202 22.3678C29.0068 22.1012 29.5055 22.7505 28.9308 23.1772C25.4295 25.7638 20.3415 27.1358 15.9682 27.1358C9.83749 27.1358 4.31483 24.8692 0.141494 21.1012C-0.18784 20.8039 0.109493 20.3985 0.50416 20.6332ZM31.8788 20.3665C32.2615 20.8465 31.7722 24.1345 29.8988 25.7092C29.6122 25.9545 29.3348 25.8265 29.4628 25.5079L29.6962 24.9225C30.1535 23.7492 30.7655 21.9918 30.3895 21.5158C29.9415 20.9425 27.4295 21.2399 26.2908 21.3785C25.9508 21.4212 25.8975 21.1225 26.2068 20.8985C28.2068 19.4945 31.4962 19.8985 31.8788 20.3665Z" fill="#FF9900"/>
</svg>
